<svg width="100" height="29" viewBox="0 0 100 29" fill="none" xmlns="http://www.w3.org/2000/svg">
<path d="M54.167 18.5244C54.167 21.6107 50.3262 21.4277 50.3262 21.4277H46.4855V15.8495H50.3262C54.2814 15.8268 54.167 18.5244 54.167 18.5244ZM46.4855 7.34497H49.4119C52.4524 7.50519 52.338 9.76823 52.338 9.76823C52.338 12.5802 48.9773 12.626 48.9773 12.626H46.4855V7.34497ZM53.4584 13.7234C53.4584 13.7234 56.0874 12.6033 56.0646 9.63106C56.0646 9.63106 56.4643 4.76178 50.0118 4.16728H42.8505V24.5826H51.0579C51.0579 24.5826 57.9164 24.6057 57.9164 18.8215C57.9164 18.8215 58.0764 14.8893 53.4584 13.7234ZM34.928 0.166677H65.0721V28.573H34.928V0.166677Z" fill="black"/>
<path d="M19.4057 18.5244C19.4057 21.6107 15.5649 21.4277 15.5649 21.4277H11.7241V15.8495H15.5649C19.5201 15.8268 19.4057 18.5244 19.4057 18.5244ZM11.7241 7.34497H14.6505C17.691 7.50519 17.5766 9.76823 17.5766 9.76823C17.5766 12.5802 14.2159 12.626 14.2159 12.626H11.7241V7.34497ZM18.697 13.7234C18.697 13.7234 21.326 12.6033 21.3033 9.63106C21.3033 9.63106 21.703 4.76178 15.2505 4.16728H8.08909V24.5826H16.2965C16.2965 24.5826 23.1551 24.6057 23.1551 18.8215C23.1551 18.8215 23.315 14.8893 18.697 13.7234ZM0.166672 0.166677H30.3107V28.573H0.166672V0.166677Z" fill="black"/>
<path d="M93.6835 5.63073V9.40291C93.6835 9.40291 90.0026 7.1396 85.9333 7.09379C85.9333 7.09379 78.3434 6.94564 78.0005 14.3699C78.0005 14.3699 77.7262 21.1996 85.842 21.5883C85.842 21.5883 89.2485 21.9998 93.8665 19.0507V22.96C93.8665 22.96 87.671 26.6406 80.4923 23.8058C80.4923 23.8058 74.4568 21.6001 74.228 14.3699C74.228 14.3699 73.9765 6.93385 82.024 4.46478C82.024 4.46478 84.1732 3.64175 88.0367 4.00745C88.0367 4.00745 90.3456 4.23625 93.6835 5.63073ZM69.6893 28.573H99.8334V0.16668H69.6893V28.573Z" fill="black"/>
</svg>
