<svg width="204" height="24" viewBox="0 0 204 24" fill="none" xmlns="http://www.w3.org/2000/svg">
<g clip-path="url(#clip0)">
<path d="M26.2749 23.2833H33.6973L37.6767 0.507996H30.2542L28.7867 8.66422H22.352L23.8196 0.507996H16.3971L12.4178 23.2833H19.8402L21.336 14.7602H27.7707L26.2749 23.2833Z" fill="#B1BAD2"/>
<path d="M41.8818 0.479753L39.624 13.1515C39.4264 14.1393 39.3418 15.0989 39.3418 16.002C39.3418 22.7189 45.212 23.7349 48.7398 23.7349C56.134 23.7349 59.3231 21.2795 60.4802 14.6473L62.9638 0.451538H55.5413L53.4247 12.3613C52.7473 16.0866 52.2675 18.034 49.5018 18.034C47.6955 18.034 46.8207 17.0744 46.8207 15.0989C46.8207 14.3369 46.9335 13.4055 47.1593 12.2484L49.3042 0.451538H41.8818V0.479753Z" fill="#B1BAD2"/>
<path d="M102.193 23.2833H109.615L110.659 17.4131H114.159C120.622 17.4131 124.206 13.9135 124.206 7.53532C124.206 3.04799 121.102 0.479767 115.655 0.479767H106.172L102.193 23.2833ZM113.764 11.7969H111.619L112.607 6.43466H114.61C116.247 6.43466 117.122 7.25311 117.122 8.74888C117.122 10.6398 115.852 11.7969 113.764 11.7969Z" fill="#B1BAD2"/>
<path d="M138.628 0C130.556 0 125.73 5.22111 125.73 13.9982C125.73 20.0942 129.568 23.7631 136.003 23.7631C144.074 23.7631 148.9 18.542 148.9 9.76489C148.929 3.64067 145.09 0 138.628 0ZM136.454 17.8647C134.535 17.8647 133.406 16.4818 133.406 14.1676C133.406 13.2927 133.491 12.5307 133.66 11.6558C134.225 8.66422 135.184 5.92667 138.204 5.92667C140.123 5.92667 141.252 7.30956 141.252 9.62378C141.252 10.4987 141.168 11.2607 140.998 12.1356C140.434 15.0989 139.474 17.8647 136.454 17.8647Z" fill="#B1BAD2"/>
<path d="M174.724 23.2833H182.146L185.081 6.604H190.669L191.742 0.507996H172.748L171.676 6.604H177.602L174.724 23.2833Z" fill="#B1BAD2"/>
<path d="M162.419 8.91822C160.076 8.18445 159.117 7.874 159.117 6.77333C159.117 6.03956 159.597 5.16466 161.008 5.16466C162.052 5.16466 162.927 5.75733 163.266 6.63222L169.813 4.85422C169.051 1.63688 166.285 0 161.516 0C152.541 0 151.836 6.01133 151.836 7.84577C151.836 11.5711 153.811 13.8571 158.101 15.0424C159.23 15.3529 160.528 15.6915 160.528 16.9333C160.528 17.9211 159.794 18.542 158.524 18.542C157.367 18.542 156.125 17.8647 155.702 16.6793L149.239 18.4291C149.945 21.8158 153.134 23.7349 158.129 23.7349C161.939 23.7349 168.317 22.7189 168.317 15.8327C168.346 12.3896 166.398 10.1318 162.419 8.91822Z" fill="black"/>
<path d="M8.26911 23.2833L12.2767 0.507996H0V23.2833H8.26911Z" fill="#0DBE98"/>
<path d="M194.931 0.507996L190.952 23.2833H203.228V0.507996H194.931Z" fill="#0DBE98"/>
<path d="M71.8256 16.5664H78.0627L79.0787 10.8373H72.8416L73.5471 6.60399H82.2678L83.3402 0.479767H67.1971L63.2178 23.2833H70.6402L71.8256 16.5664Z" fill="black"/>
<path d="M91.2707 16.5664H97.536L98.552 10.8373H92.3149L93.0204 6.60399H101.741L102.814 0.479767H86.6704L82.6911 23.2833H90.1135L91.2707 16.5664Z" fill="black"/>
</g>
<defs>
<clipPath id="clip0">
<rect width="203.228" height="23.7631" fill="white"/>
</clipPath>
</defs>
</svg>
