<svg width="25" height="20" viewBox="0 0 25 20" fill="none" xmlns="http://www.w3.org/2000/svg">
<path d="M24.9496 2.44084C24.0668 2.83229 23.1172 3.09704 22.1213 3.21528C23.1381 2.60609 23.9185 1.64216 24.2868 0.4917C23.3353 1.0561 22.2811 1.46554 21.16 1.68623C20.2618 0.729652 18.9821 0.131836 17.565 0.131836C14.8462 0.131836 12.6411 2.33692 12.6411 5.05573C12.6411 5.44167 12.6848 5.81732 12.7693 6.17792C8.67712 5.97265 5.04873 4.01249 2.62002 1.0326C2.19626 1.75967 1.95317 2.60609 1.95317 3.50832C1.95317 5.2162 2.82308 6.72396 4.14356 7.60673C3.33681 7.58139 2.57705 7.35996 1.91351 6.99019C1.91314 7.01112 1.91314 7.03205 1.91314 7.05261C1.91314 9.43836 3.61111 11.4283 5.8632 11.8803C5.45046 11.9934 5.01458 12.0533 4.56622 12.0533C4.24822 12.0533 3.94013 12.0228 3.63975 11.9655C4.26621 13.9212 6.08426 15.3449 8.2394 15.3849C6.55392 16.7058 4.43109 17.4927 2.12355 17.4927C1.72696 17.4927 1.33405 17.4696 0.949585 17.4237C3.1275 18.8213 5.71632 19.6361 8.49682 19.6361C17.5536 19.6361 22.5065 12.1333 22.5065 5.62601C22.5065 5.41266 22.5018 5.20005 22.4922 4.98927C23.455 4.29524 24.2897 3.42827 24.9496 2.44084Z" fill="#6ECAF9"/>
</svg>
