<svg width="80" height="29" viewBox="0 0 80 29" fill="none" xmlns="http://www.w3.org/2000/svg">
<path fill-rule="evenodd" clip-rule="evenodd" d="M63.0588 11.4188C62.918 11.6029 62.4822 11.4734 62.3127 11.5486C62.3692 11.2688 62.8058 11.4296 63.0588 11.4188Z" fill="white"/>
<path fill-rule="evenodd" clip-rule="evenodd" d="M42.8836 16.3812C45.1476 16.3123 47.2689 15.9839 49.3059 15.992C48.3028 16.415 47.1719 16.7872 46.0299 17.1921C44.9143 17.5876 43.731 18.0968 42.5592 18.0679C41.9454 18.0528 41.0718 17.8484 41.0023 17.257C40.9063 16.4396 41.5786 15.7533 42.0402 15.1808C42.6168 14.4664 43.1441 14.0064 43.662 13.5266C43.4753 14.4216 43.1017 15.4103 42.8836 16.3812Z" fill="white"/>
<path fill-rule="evenodd" clip-rule="evenodd" d="M65.2319 17.03C64.7 17.3638 63.9191 17.4549 63.156 17.5492C62.1367 17.6752 60.9015 17.6214 59.9771 17.5492C61.3653 17.0494 63.542 17.1457 65.2319 17.03Z" fill="white"/>
<path fill-rule="evenodd" clip-rule="evenodd" d="M46.3542 9.37537C45.7987 11.2634 45.0613 13.2504 44.4729 15.2141C45.4133 15.193 46.495 15.049 47.5868 14.9543C48.5425 14.8716 49.8229 14.91 50.4738 14.4678C51.0231 14.0943 51.0347 13.2747 51.4469 12.7163C51.6942 13.6183 52.4462 14.8368 51.9013 15.7004C51.5004 16.3356 50.1778 16.7591 49.3061 17.063C48.2711 17.4235 47.497 17.7238 46.4518 18.1331C45.4776 18.5147 44.6243 18.8742 43.4028 19.0088C41.944 19.1699 39.9513 18.8775 39.77 17.4519C39.7054 16.9435 39.9178 16.4234 40.1268 15.9923C40.7171 14.7749 41.6472 13.8207 42.4946 12.9436C43.1028 12.3141 43.7204 11.7118 44.3434 11.1596C45.0227 10.5568 45.7055 9.96354 46.3542 9.37537ZM43.662 13.5269C43.1441 14.0067 42.6168 14.4667 42.0402 15.1811C41.5785 15.7534 40.9063 16.4396 41.0023 17.2573C41.0717 17.8487 41.9451 18.0531 42.5592 18.0682C43.7309 18.0968 44.9143 17.5879 46.0298 17.1924C47.1721 16.7875 48.3028 16.4153 49.3059 15.9923C47.2689 15.9845 45.1476 16.3129 42.8835 16.3815C43.1017 15.4103 43.4752 14.4216 43.662 13.5269Z" fill="black"/>
<path fill-rule="evenodd" clip-rule="evenodd" d="M14.2102 13.3647C14.5716 13.1576 14.7457 12.7381 14.9238 12.3916C15.1081 12.0324 15.3341 11.6399 15.4428 11.2239C15.6125 10.5763 15.5195 9.97487 15.4752 9.40752C15.2217 6.15635 18.528 5.47087 21.2812 4.99623C22.936 4.71079 24.8603 4.74242 26.6007 4.93136C26.8324 4.95649 27.1278 5.05596 27.3143 5.02866C27.5589 4.99271 27.9584 4.62105 28.1901 4.47725C28.7169 4.15073 29.3278 3.82313 30.0389 3.69879C30.9196 3.54499 32.0029 3.67636 32.9906 3.86097C35.8017 4.38616 38.7864 5.0884 41.0025 6.06661C41.0453 6.26393 40.6755 6.60208 40.5484 6.84508C42.6749 5.69306 44.6751 4.49482 47.1327 3.76366C49.3851 3.09359 51.9964 2.98925 54.2686 3.69879C54.5473 3.78583 54.9073 3.96774 55.1765 3.99071C55.5847 4.02531 56.0804 3.86719 56.5388 3.82853C63.8072 3.21577 70.5752 5.29923 76.7788 6.48828C75.436 8.64851 73.5617 10.2771 71.1026 11.3212C71.3558 11.5707 71.6442 11.6626 71.8486 11.9051C72.407 12.5679 72.3624 13.7012 71.9783 14.4675C71.601 15.2206 70.7785 15.652 70.3565 16.1218C71.6851 16.0442 73.0011 16.2864 73.1785 17.5165C73.3598 18.7745 72.6608 19.7851 72.0432 20.4357C70.09 22.4933 66.6848 23.1679 63.3828 23.8418C61.0885 24.3097 59.0023 24.5294 56.2793 24.5554C54.1645 24.5754 50.8733 24.3818 49.9546 23.0309C49.774 22.7654 49.6756 22.3584 49.6627 22.0251C47.1051 23.1209 44.2348 24.2767 40.7428 24.3608C37.1508 24.4467 33.872 23.5793 32.6338 21.1493C32.0456 22.2167 31.5364 23.2906 30.5255 23.8739C29.3689 24.5419 27.3057 24.6338 25.8871 24.3608C24.3143 24.0577 23.1055 23.3958 22.9676 21.7656C22.8317 20.1541 23.4823 18.582 23.9083 17.257C24.3729 15.8123 24.8892 14.4989 25.4003 13.235C24.7089 13.6412 24.2305 14.4167 23.7139 15.0838C22.2065 17.03 20.4092 18.9542 18.362 20.4357C17.041 21.3912 15.5609 22.3516 13.8531 23.063C12.3416 23.6928 9.85972 24.5589 7.98222 23.8091C7.33026 23.5488 6.68992 22.8471 7.00914 21.9602C7.1824 21.4785 7.77896 21.1977 7.82004 20.6628C7.85113 20.2549 7.4473 19.7159 7.20376 19.3005C6.50017 18.1009 5.70441 16.7153 5.19273 15.473C4.48319 13.751 3.61553 11.3183 4.25236 9.24534C4.83621 7.34405 6.48233 6.20474 8.11224 5.28815C9.39886 4.56456 10.6658 4.03153 12.1667 3.50417C13.0098 3.20793 14.4794 2.7122 15.1184 3.56905C16.0193 4.77756 15.2395 7.12375 14.9235 8.402C14.5078 10.0841 14.1988 11.6583 14.2102 13.3647ZM33.2174 4.93163C32.1805 4.72809 31.0215 4.53726 30.0387 4.76945C29.5735 4.87946 29.1196 5.11894 28.7737 5.35329C28.4977 5.54034 28.0257 6.04526 27.6708 6.09932C27.2543 6.16284 26.6651 5.98336 26.1463 5.93714C23.4142 5.6936 20.8961 5.87308 18.751 6.65073C18.003 6.92184 17.0605 7.29621 16.7075 8.01304C16.2926 8.85583 16.8078 10.0235 16.6751 11.0945C16.6172 11.5604 16.3775 12.0605 16.1561 12.4892C15.6863 13.3988 15.2368 13.985 14.6313 14.7921C14.4148 15.0808 13.9456 15.7125 13.5285 15.6355C13.2398 15.582 13.1071 15.073 13.0744 14.5002C12.9303 11.9797 13.5523 9.86811 13.9826 7.75355C14.1615 6.87346 14.4116 5.8028 14.3391 4.96406C14.2864 4.34913 14.0096 4.09883 13.4961 4.12073C12.6452 4.15695 11.5913 4.75323 10.7714 5.09381C9.87972 5.46412 9.13181 5.86011 8.40335 6.32637C6.95076 7.25674 5.5725 8.44957 5.3222 10.4782C5.05596 12.6333 5.92362 14.5437 6.68451 16.0572C7.06239 16.8089 7.41973 17.5676 8.01439 18.3277C8.472 18.9131 9.40265 19.837 9.27939 20.6955C9.18911 21.3247 7.92276 21.9624 8.14413 22.6092C8.25658 22.9379 9.0026 23.0252 9.66889 23.0311C11.6164 23.0482 13.1036 22.29 14.2748 21.7013C16.119 20.7736 17.5446 19.73 18.9777 18.5223C20.4282 17.3005 21.7561 16.018 22.9352 14.5973C24.1226 13.1668 25.1165 11.5759 26.341 10.0889C27.2167 12.4603 26.322 14.3783 25.5949 16.0896C25.2125 16.99 24.903 17.8187 24.5892 18.8142C24.3078 19.7073 23.9039 21.039 24.1675 22.0254C24.5097 23.3052 26.4242 23.5396 27.9301 23.4201C29.0572 23.3309 29.9084 23.019 30.4925 22.447C31.718 21.2474 32.3643 19.5554 33.1198 17.9706C32.9606 20.1725 33.8577 21.468 35.293 22.2521C36.721 23.0325 38.5855 23.3874 40.6774 23.3874C44.8754 23.3874 48.0438 21.7997 50.6352 20.3709C50.4941 21.0796 50.4555 21.8594 50.7325 22.3819C51.2907 23.4347 52.7792 23.5128 54.3978 23.6469C55.5209 23.7401 56.3877 23.7631 57.1873 23.7442C59.2486 23.6958 61.1461 23.4466 63.0906 23.0628C65.7077 22.5465 68.5107 21.767 70.486 20.4679C71.1526 20.0297 71.8851 19.457 72.0429 18.6839C72.49 16.4923 69.8854 17.1413 68.475 17.4511C67.3965 17.6881 66.3191 18.0155 65.3938 18.2295C63.3504 18.702 60.6668 19.3162 58.8418 18.489C58.5631 18.3628 58.1593 18.1574 58.1603 17.743C58.1614 17.4643 58.4539 17.1478 58.6469 16.997C59.3175 16.4731 60.4287 16.3375 61.5986 16.251C64.5016 16.0363 68.7904 16.5069 70.5184 14.6938C70.9415 14.2499 71.3683 13.1601 70.8752 12.3584C70.4768 11.7102 69.4564 11.5696 68.5398 11.6123C66.0239 11.7299 63.9018 12.7746 61.6959 12.7152C61.2912 12.7041 60.5206 12.7106 60.3984 12.4232C60.2468 12.0667 60.6239 11.5367 60.8204 11.288C61.0707 10.9709 61.395 10.6158 61.6959 10.5095C62.1948 10.3336 62.9733 10.4363 63.6745 10.5095C65.7901 10.7295 67.9271 10.9204 69.6751 10.6068C71.9007 10.2076 73.4061 9.02234 74.6375 7.6876C74.8065 7.50488 75.0351 7.32351 75.0916 7.07132C69.8213 6.12094 63.8118 4.58267 58.0306 4.67106C57.0116 4.68646 56.0947 4.82837 55.3384 5.22247C54.7102 5.5498 53.818 6.30069 53.9437 7.16862C54.0183 7.68436 54.6927 8.06305 55.1762 8.23901C55.7931 8.4639 56.4337 8.54958 56.9605 8.79042C55.5984 9.03802 53.9523 9.43022 52.5816 9.66619C52.849 8.9872 53.2031 8.32686 53.5223 7.49298C53.7372 6.93103 54.241 5.71468 54.0734 4.99542C53.9115 4.30075 52.5827 4.16452 51.6732 4.15208C50.8179 4.14046 49.6924 4.27912 48.9161 4.44401C43.7012 5.55223 39.734 8.40579 36.331 11.2231C36.9786 9.70944 37.9133 8.27631 38.7637 7.00644C38.8872 6.82183 39.0853 6.5964 39.0556 6.45503C37.1183 5.76739 35.196 5.32005 33.2174 4.93163ZM62.3127 11.5486C62.4822 11.4734 62.9176 11.6029 63.0587 11.4188C62.8057 11.4296 62.3692 11.2688 62.3127 11.5486ZM59.977 17.5492C60.9015 17.6214 62.1367 17.6752 63.156 17.5492C63.9188 17.4549 64.7 17.3638 65.2319 17.03C63.542 17.1456 61.3653 17.0494 59.977 17.5492Z" fill="black"/>
</svg>
