<svg width="28" height="28" viewBox="0 0 28 28" fill="none" xmlns="http://www.w3.org/2000/svg">
<path d="M24.2268 0H3.77308C1.68931 0 0 1.68924 0 3.77308V24.227C0 26.3108 1.68924 28.0001 3.77308 28.0001H13.8608L13.878 17.9944H11.2785C10.9407 17.9944 10.6665 17.7212 10.6652 17.3834L10.6527 14.1581C10.6514 13.8185 10.9264 13.5424 11.2661 13.5424H13.8609V10.426C13.8609 6.80943 16.0696 4.84018 19.2958 4.84018H21.9432C22.2819 4.84018 22.5566 5.11478 22.5566 5.45356V8.17311C22.5566 8.51175 22.2821 8.78628 21.9435 8.78649L20.3189 8.78724C18.5644 8.78724 18.2246 9.62097 18.2246 10.8445V13.5425H22.0799C22.4473 13.5425 22.7323 13.8632 22.689 14.2281L22.3067 17.4533C22.2701 17.762 22.0084 17.9945 21.6976 17.9945H18.2418L18.2246 28.0002H24.227C26.3108 28.0002 28 26.311 28 24.2272V3.77308C27.9999 1.68924 26.3107 0 24.2268 0Z" fill="#475993"/>
</svg>
