<svg width="25" height="26" viewBox="0 0 25 26" fill="none" xmlns="http://www.w3.org/2000/svg">
<path d="M17.2693 0.52002H7.32751C3.28711 0.52002 0 3.80316 0 7.8387V17.7685C0 21.804 3.28711 25.0871 7.32751 25.0871H17.2693C21.3097 25.0871 24.5968 21.804 24.5968 17.7685V7.8387C24.5967 3.80316 21.3096 0.52002 17.2693 0.52002ZM22.1223 17.7685C22.1223 20.4455 19.9495 22.6157 17.2693 22.6157H7.32751C4.64725 22.6157 2.47443 20.4455 2.47443 17.7685V7.8387C2.47443 5.16163 4.64725 2.99147 7.32751 2.99147H17.2693C19.9495 2.99147 22.1223 5.16163 22.1223 7.8387V17.7685Z" fill="white"/>
<path d="M12.2981 6.44971C8.7903 6.44971 5.93649 9.30008 5.93649 12.8036C5.93649 16.3071 8.7903 19.1575 12.2981 19.1575C15.8059 19.1575 18.6597 16.3072 18.6597 12.8036C18.6597 9.30003 15.8059 6.44971 12.2981 6.44971ZM12.2981 16.6861C10.1513 16.6861 8.41093 14.9479 8.41093 12.8036C8.41093 10.6594 10.1513 8.92116 12.2981 8.92116C14.4449 8.92116 16.1853 10.6594 16.1853 12.8036C16.1853 14.9478 14.4449 16.6861 12.2981 16.6861Z" fill="white"/>
<path d="M18.6722 8.01968C19.514 8.01968 20.1965 7.33801 20.1965 6.49714C20.1965 5.65627 19.514 4.97461 18.6722 4.97461C17.8303 4.97461 17.1478 5.65627 17.1478 6.49714C17.1478 7.33801 17.8303 8.01968 18.6722 8.01968Z" fill="white"/>
</svg>
