<svg width="36" height="36" viewBox="0 0 36 36" fill="none" xmlns="http://www.w3.org/2000/svg">
<path d="M9.2471 12.6416C9.27643 12.3522 9.16592 12.0661 8.94955 11.8714L6.74547 9.21939V8.82324H13.5891L18.8789 20.4105L23.5295 8.82324H30.0536V9.21939L28.1691 11.024C28.0067 11.1477 27.9261 11.351 27.9597 11.5522V24.8121C27.9261 25.0133 28.0067 25.2166 28.1691 25.3403L30.0095 27.1449V27.5411H20.7524V27.1449L22.6589 25.2962C22.8463 25.1092 22.8463 25.0541 22.8463 24.768V14.0501L17.5455 27.497H16.8291L10.6577 14.0501V23.0624C10.6063 23.4413 10.7322 23.8228 10.9993 24.0968L13.4789 27.1009V27.497H6.44792V27.1009L8.92751 24.0968C9.19266 23.8223 9.3113 23.4383 9.2471 23.0624V12.6416Z" fill="white"/>
</svg>
