<svg width="29" height="24" viewBox="0 0 29 24" fill="none" xmlns="http://www.w3.org/2000/svg">
<path d="M27.6635 3.23689C27.0389 3.51351 26.3906 3.73174 25.7253 3.88973C26.4584 3.19397 27.0095 2.32371 27.3205 1.35235C27.4092 1.07504 27.1077 0.83525 26.857 0.983726C25.9315 1.53204 24.9345 1.94338 23.8938 2.20645C23.8334 2.22172 23.7711 2.22945 23.7086 2.22945C23.519 2.22945 23.3348 2.15915 23.1898 2.03155C22.0825 1.05683 20.6584 0.52002 19.1799 0.52002C18.5401 0.52002 17.8941 0.61962 17.2599 0.816083C15.2948 1.42484 13.7786 3.04385 13.3028 5.04133C13.1244 5.79056 13.0761 6.54047 13.1591 7.27019C13.1687 7.35405 13.129 7.41258 13.1045 7.44003C13.0615 7.48815 13.0006 7.51574 12.9373 7.51574C12.9303 7.51574 12.923 7.51539 12.9158 7.51471C8.61433 7.11555 4.73544 5.04571 1.99364 1.68654C1.85382 1.5152 1.58571 1.53622 1.47427 1.72714C0.93735 2.64716 0.653609 3.69943 0.653609 4.77019C0.653609 6.41116 1.31368 7.95761 2.46023 9.08497C1.97808 8.97079 1.51141 8.79096 1.07792 8.55049C0.868197 8.43411 0.610157 8.58369 0.60721 8.82327C0.577191 11.2611 2.00618 13.4302 4.14685 14.407C4.10374 14.408 4.06063 14.4085 4.01745 14.4085C3.67813 14.4085 3.33455 14.3758 2.99639 14.3112C2.76022 14.2662 2.5618 14.49 2.63514 14.7187C3.32996 16.8853 5.19772 18.4823 7.43283 18.8449C5.57782 20.0887 3.41762 20.7447 1.16928 20.7447L0.468355 20.7443C0.252396 20.7443 0.0697462 20.8849 0.0147114 21.0938C-0.039501 21.2996 0.0603567 21.5167 0.244514 21.6237C2.77804 23.0963 5.66788 23.8747 8.60289 23.8747C11.172 23.8747 13.5751 23.3654 15.7457 22.3612C17.7355 21.4406 19.4939 20.1245 20.972 18.4497C22.3489 16.8895 23.4256 15.0884 24.1721 13.0965C24.8837 11.1978 25.2598 9.17184 25.2598 7.23761V7.14547C25.2597 6.83489 25.4004 6.54266 25.6457 6.34374C26.5768 5.58869 27.3876 4.69988 28.0555 3.70203C28.2318 3.43855 27.9537 3.10833 27.6635 3.23689Z" fill="white"/>
</svg>
