<svg width="32" height="23" viewBox="0 0 32 23" fill="none" xmlns="http://www.w3.org/2000/svg">
<path d="M30.2804 3.01593C29.4226 1.49189 28.4916 1.21156 26.5961 1.10496C24.7026 0.976642 19.9412 0.92334 15.8162 0.92334C11.6832 0.92334 6.91982 0.976642 5.02828 1.10299C3.13675 1.21157 2.20383 1.48992 1.33811 3.01593C0.454601 4.538 0 7.15966 0 11.7752C0 11.7792 0 11.7811 0 11.7811C0 11.7851 0 11.7871 0 11.7871V11.791C0 16.3868 0.454601 19.0282 1.33811 20.5345C2.20383 22.0585 3.13477 22.3349 5.02631 22.4632C6.91982 22.5738 11.6832 22.6389 15.8162 22.6389C19.9412 22.6389 24.7026 22.5738 26.5981 22.4652C28.4936 22.3369 29.4246 22.0605 30.2824 20.5365C31.1738 19.0302 31.6244 16.3888 31.6244 11.793C31.6244 11.793 31.6244 11.7871 31.6244 11.7831C31.6244 11.7831 31.6244 11.7792 31.6244 11.7772C31.6244 7.15966 31.1738 4.538 30.2804 3.01593Z" fill="white"/>
<path d="M11.8592 17.7033V5.8584L21.7418 11.7808L11.8592 17.7033Z" fill="#000046" fill-opacity="0.7"/>
</svg>
